<svg xmlns="http://www.w3.org/2000/svg" xmlns:xlink="http://www.w3.org/1999/xlink" width="86" height="86" viewBox="0 0 86 86">
  <defs>
    <clipPath id="clip-path">
      <rect id="Rectangle_564" data-name="Rectangle 564" width="86" height="86" transform="translate(727 1272)" fill="#fff" stroke="#707070" stroke-width="1"/>
    </clipPath>
  </defs>
  <g id="Mask_Group_50" data-name="Mask Group 50" transform="translate(-727 -1272)" clip-path="url(#clip-path)">
    <g id="wi-fi-svgrepo-com" transform="translate(724.662 1283.669)">
      <path id="Path_742" data-name="Path 742" d="M40.116,55.954a1.211,1.211,0,0,0-.068,1.841l4.471,4.471a1.355,1.355,0,0,0,1.916,0L50.906,57.8a1.211,1.211,0,0,0-.068-1.841,9.036,9.036,0,0,0-10.722,0Z" fill="#3d39b3"/>
      <path id="Path_743" data-name="Path 743" d="M29.517,47.258a3.987,3.987,0,0,1,.249-6.108,27.108,27.108,0,0,1,31.434,0,3.987,3.987,0,0,1,.249,6.108c-1.763,1.763-4.6,1.7-6.749.428a18.085,18.085,0,0,0-18.435,0C34.122,48.96,31.281,49.021,29.517,47.258Z" fill="#3d39b3"/>
      <path id="Path_744" data-name="Path 744" d="M16.746,34.484a4.186,4.186,0,0,1,.153-6.223,45.166,45.166,0,0,1,57.172,0,4.186,4.186,0,0,1,.154,6.223,4.992,4.992,0,0,1-6.577.206,36.136,36.136,0,0,0-44.326,0A4.992,4.992,0,0,1,16.746,34.484Z" fill="#3d39b3"/>
      <path id="Path_745" data-name="Path 745" d="M3.65,21.71a4.277,4.277,0,0,1,.111-6.271,63.228,63.228,0,0,1,83.177.33A4.277,4.277,0,0,1,87,22.04a4.824,4.824,0,0,1-6.516.085,54.2,54.2,0,0,0-70.318-.279A4.824,4.824,0,0,1,3.65,21.71Z" fill="#3d39b3"/>
    </g>
  </g>
</svg>
