<svg xmlns="http://www.w3.org/2000/svg" xmlns:xlink="http://www.w3.org/1999/xlink" width="318" height="659" viewBox="0 0 318 659">
  <defs>
    <linearGradient id="linear-gradient" x1="0.878" y1="0.147" x2="0.025" y2="0.934" gradientUnits="objectBoundingBox">
      <stop offset="0" stop-color="#3d39b3"/>
      <stop offset="0.466" stop-color="#5ba1e8"/>
      <stop offset="1" stop-color="#003c95"/>
    </linearGradient>
    <filter id="Rectangle_389" x="6" y="127" width="312" height="180" filterUnits="userSpaceOnUse">
      <feOffset dx="3" dy="3" input="SourceAlpha"/>
      <feGaussianBlur stdDeviation="3" result="blur"/>
      <feFlood flood-opacity="0.161"/>
      <feComposite operator="in" in2="blur"/>
      <feComposite in="SourceGraphic"/>
    </filter>
    <linearGradient id="linear-gradient-2" x1="0.955" y1="0.056" x2="0.069" y2="0.948" gradientUnits="objectBoundingBox">
      <stop offset="0" stop-color="#919191"/>
      <stop offset="0.494" stop-color="#e6e6e6"/>
      <stop offset="1" stop-color="#e2e2e2"/>
    </linearGradient>
    <filter id="Rectangle_394" x="0" y="369" width="152" height="87" filterUnits="userSpaceOnUse">
      <feOffset dx="3" dy="3" input="SourceAlpha"/>
      <feGaussianBlur stdDeviation="3" result="blur-2"/>
      <feFlood flood-opacity="0.161"/>
      <feComposite operator="in" in2="blur-2"/>
      <feComposite in="SourceGraphic"/>
    </filter>
    <filter id="Rectangle_402" x="0" y="592" width="152" height="67" filterUnits="userSpaceOnUse">
      <feOffset dx="3" dy="3" input="SourceAlpha"/>
      <feGaussianBlur stdDeviation="3" result="blur-3"/>
      <feFlood flood-opacity="0.161"/>
      <feComposite operator="in" in2="blur-3"/>
      <feComposite in="SourceGraphic"/>
    </filter>
    <filter id="Rectangle_403" x="166" y="591" width="152" height="67" filterUnits="userSpaceOnUse">
      <feOffset dx="3" dy="3" input="SourceAlpha"/>
      <feGaussianBlur stdDeviation="3" result="blur-4"/>
      <feFlood flood-opacity="0.161"/>
      <feComposite operator="in" in2="blur-4"/>
      <feComposite in="SourceGraphic"/>
    </filter>
    <filter id="Rectangle_396" x="0" y="461" width="152" height="87" filterUnits="userSpaceOnUse">
      <feOffset dx="3" dy="3" input="SourceAlpha"/>
      <feGaussianBlur stdDeviation="3" result="blur-5"/>
      <feFlood flood-opacity="0.161"/>
      <feComposite operator="in" in2="blur-5"/>
      <feComposite in="SourceGraphic"/>
    </filter>
    <filter id="Rectangle_395" x="166" y="369" width="152" height="87" filterUnits="userSpaceOnUse">
      <feOffset dx="3" dy="3" input="SourceAlpha"/>
      <feGaussianBlur stdDeviation="3" result="blur-6"/>
      <feFlood flood-opacity="0.161"/>
      <feComposite operator="in" in2="blur-6"/>
      <feComposite in="SourceGraphic"/>
    </filter>
    <filter id="Rectangle_397" x="166" y="461" width="152" height="87" filterUnits="userSpaceOnUse">
      <feOffset dx="3" dy="3" input="SourceAlpha"/>
      <feGaussianBlur stdDeviation="3" result="blur-7"/>
      <feFlood flood-opacity="0.161"/>
      <feComposite operator="in" in2="blur-7"/>
      <feComposite in="SourceGraphic"/>
    </filter>
    <clipPath id="clip-path">
      <rect id="Rectangle_398" data-name="Rectangle 398" width="13" height="13" transform="translate(-0.2 -0.037)" fill="#e3e3e3"/>
    </clipPath>
    <clipPath id="clip-path-2">
      <rect id="Rectangle_399" data-name="Rectangle 399" width="13" height="13" transform="translate(0.141 0.421)" fill="#e3e3e3"/>
    </clipPath>
    <clipPath id="clip-path-3">
      <rect id="Rectangle_400" data-name="Rectangle 400" width="13" height="13" transform="translate(-0.2 0.421)" fill="#fff"/>
    </clipPath>
    <clipPath id="clip-path-4">
      <rect id="Rectangle_401" data-name="Rectangle 401" width="13" height="13" transform="translate(0.141 -0.037)" fill="#e3e3e3"/>
    </clipPath>
  </defs>
  <g id="Group_62" data-name="Group 62" transform="translate(-12.298 -40)">
    <g id="Rectangle_387" data-name="Rectangle 387" transform="translate(52.298 40)" fill="#fff" stroke="#707070" stroke-width="1">
      <rect width="200" height="27" rx="11" stroke="none"/>
      <rect x="0.5" y="0.5" width="199" height="26" rx="10.5" fill="none"/>
    </g>
    <g id="icon_navigation_more_vert_24px" data-name="icon/navigation/more_vert_24px" transform="translate(302.298 43)">
      <rect id="Boundary" width="21" height="21" fill="none"/>
      <path id="_Color" data-name=" ↳Color" d="M1.5,14A1.641,1.641,0,0,1,0,12.25,1.642,1.642,0,0,1,1.5,10.5,1.642,1.642,0,0,1,3,12.25,1.641,1.641,0,0,1,1.5,14Zm0-5.25A1.641,1.641,0,0,1,0,7,1.641,1.641,0,0,1,1.5,5.25,1.641,1.641,0,0,1,3,7,1.641,1.641,0,0,1,1.5,8.75Zm0-5.25A1.641,1.641,0,0,1,0,1.75,1.641,1.641,0,0,1,1.5,0,1.641,1.641,0,0,1,3,1.75,1.641,1.641,0,0,1,1.5,3.5Z" transform="translate(9 3)"/>
    </g>
    <g id="Rectangle_388" data-name="Rectangle 388" transform="translate(271.298 45)" fill="#fff" stroke="#707070" stroke-width="1">
      <rect width="17" height="17" rx="5" stroke="none"/>
      <rect x="0.5" y="0.5" width="16" height="16" rx="4.5" fill="none"/>
    </g>
    <g id="Rectangle_386" data-name="Rectangle 386" transform="translate(18.298 45)" fill="#fff" stroke="#707070" stroke-width="1">
      <rect width="18" height="17" rx="5" stroke="none"/>
      <rect x="0.5" y="0.5" width="17" height="16" rx="4.5" fill="none"/>
    </g>
    <g id="icon_navigation_menu_24px" data-name="icon/navigation/menu_24px" transform="translate(17.298 106)">
      <rect id="Boundary-2" data-name="Boundary" width="21" height="21" fill="none"/>
      <path id="_Color-2" data-name=" ↳Color" d="M16,10H0V8.333H16V10Zm0-4.166H0V4.167H16V5.833Zm0-4.167H0V0H16V1.666Z" transform="translate(3 5)"/>
    </g>
    <text id="LOGO" transform="translate(149.298 125)" fill="#707070" font-size="17" font-family="SegoeUI-Bold, Segoe UI" font-weight="700"><tspan x="0" y="0">LOGO</tspan></text>
    <g transform="matrix(1, 0, 0, 1, 12.3, 40)" filter="url(#Rectangle_389)">
      <rect id="Rectangle_389-2" data-name="Rectangle 389" width="294" height="162" rx="10" transform="translate(12 133)" fill="url(#linear-gradient)"/>
    </g>
    <g id="Group_48" data-name="Group 48" transform="translate(43.747 250.526)">
      <rect id="Rectangle_390" data-name="Rectangle 390" width="49" height="31" rx="4" transform="translate(-0.449 0.474)" fill="url(#linear-gradient-2)"/>
      <g id="Rectangle_392" data-name="Rectangle 392" transform="translate(-0.449 10.474)" fill="none" stroke="#a5a5a5" stroke-width="1">
        <rect width="18" height="11" stroke="none"/>
        <rect x="0.5" y="0.5" width="17" height="10" fill="none"/>
      </g>
      <g id="Rectangle_393" data-name="Rectangle 393" transform="translate(31.551 10.474)" fill="none" stroke="#a5a5a5" stroke-width="1">
        <rect width="17" height="11" stroke="none"/>
        <rect x="0.5" y="0.5" width="16" height="10" fill="none"/>
      </g>
      <path id="Path_396" data-name="Path 396" d="M11492,5935.016l6.345,3.219h13.764v5.015" transform="translate(-11467.841 -5912.189)" fill="none" stroke="#a5a5a5" stroke-width="1"/>
      <path id="Path_399" data-name="Path 399" d="M11492,5943.25l6.345-3.219h13.764v-5.016" transform="translate(-11467.841 -5934.622)" fill="none" stroke="#a5a5a5" stroke-width="1"/>
      <path id="Path_397" data-name="Path 397" d="M11512.108,5935.016l-6.345,3.368H11492v5.247" transform="translate(-11487.686 -5912.569)" fill="none" stroke="#a5a5a5" stroke-width="1"/>
      <path id="Path_398" data-name="Path 398" d="M11512.108,5943.63l-6.345-3.368H11492v-5.247" transform="translate(-11487.686 -5934.622)" fill="none" stroke="#a5a5a5" stroke-width="1"/>
      <g id="Rectangle_391" data-name="Rectangle 391" transform="translate(17.551 8.474)" fill="none" stroke="#a5a5a5" stroke-width="1">
        <rect width="14" height="15" rx="3" stroke="none"/>
        <rect x="0.5" y="0.5" width="13" height="14" rx="2.5" fill="none"/>
      </g>
    </g>
    <text id="ADEYEMI_KOLA" data-name="ADEYEMI KOLA" transform="translate(38.298 319)" fill="#fff" font-size="9" font-family="SegoeUI, Segoe UI" letter-spacing="0.04em"><tspan x="0" y="0">ADEYEMI KOLA</tspan></text>
    <text id="_09045623481" data-name="09045623481" transform="translate(38.298 301)" fill="#fff" font-size="8" font-family="SegoeUI, Segoe UI" letter-spacing="0.03em"><tspan x="0" y="0">09045623481</tspan></text>
    <text id="LOGO-2" data-name="LOGO" transform="translate(254.298 205)" fill="#fff" font-size="13" font-family="SegoeUI-Bold, Segoe UI" font-weight="700"><tspan x="0" y="0">LOGO</tspan></text>
    <text id="WALLET_BALANCE" data-name="WALLET BALANCE" transform="translate(37.298 206)" fill="#fff" font-size="9" font-family="SegoeUI, Segoe UI" letter-spacing="0.04em"><tspan x="0" y="0">WALLET BALANCE</tspan></text>
    <text id="FUND_WALLET" data-name="FUND WALLET" transform="translate(232.298 292)" fill="#fff" font-size="8" font-family="SegoeUI, Segoe UI" letter-spacing="0.04em"><tspan x="0" y="0">FUND WALLET</tspan></text>
    <text id="_3_056" data-name="#3,056" transform="translate(37.298 223)" fill="#fff" font-size="13" font-family="SegoeUI, Segoe UI" letter-spacing="0.04em"><tspan x="0" y="0">#3,056</tspan></text>
    <circle id="Ellipse_44" data-name="Ellipse 44" cx="8" cy="8" r="8" transform="translate(211.298 282)" fill="#fff"/>
    <g id="icon_content_add_24px" data-name="icon/content/add_24px" transform="translate(211.298 282)">
      <rect id="Boundary-3" data-name="Boundary" width="15" height="15" fill="none"/>
      <path id="_Color-3" data-name=" ↳Color" d="M7.765,3.944H4.437V6.9H3.328V3.944H0V2.958H3.328V0H4.437V2.958H7.765Z" transform="translate(4.314 4.314)" fill="#3d39b3"/>
    </g>
    <text id="OUR_SERVICE" data-name="OUR SERVICE" transform="translate(24.298 389)" fill="#313131" font-size="13" font-family="SegoeUI-Bold, Segoe UI" font-weight="700" letter-spacing="0.04em"><tspan x="0" y="0">OUR SERVICE</tspan></text>
    <g transform="matrix(1, 0, 0, 1, 12.3, 40)" filter="url(#Rectangle_394)">
      <rect id="Rectangle_394-2" data-name="Rectangle 394" width="134" height="69" rx="10" transform="translate(6 375)" fill="#fff"/>
    </g>
    <g transform="matrix(1, 0, 0, 1, 12.3, 40)" filter="url(#Rectangle_402)">
      <rect id="Rectangle_402-2" data-name="Rectangle 402" width="134" height="49" rx="10" transform="translate(6 598)" fill="#fff"/>
    </g>
    <g transform="matrix(1, 0, 0, 1, 12.3, 40)" filter="url(#Rectangle_403)">
      <rect id="Rectangle_403-2" data-name="Rectangle 403" width="134" height="49" rx="10" transform="translate(172 597)" fill="#fff"/>
    </g>
    <g transform="matrix(1, 0, 0, 1, 12.3, 40)" filter="url(#Rectangle_396)">
      <rect id="Rectangle_396-2" data-name="Rectangle 396" width="134" height="69" rx="10" transform="translate(6 467)" fill="#fff"/>
    </g>
    <g transform="matrix(1, 0, 0, 1, 12.3, 40)" filter="url(#Rectangle_395)">
      <rect id="Rectangle_395-2" data-name="Rectangle 395" width="134" height="69" rx="10" transform="translate(172 375)" fill="#fff"/>
    </g>
    <g transform="matrix(1, 0, 0, 1, 12.3, 40)" filter="url(#Rectangle_397)">
      <rect id="Rectangle_397-2" data-name="Rectangle 397" width="134" height="69" rx="10" transform="translate(172 467)" fill="#fff"/>
    </g>
    <circle id="Ellipse_45" data-name="Ellipse 45" cx="13" cy="13" r="13" transform="translate(107.298 426)" fill="#3d39b3"/>
    <circle id="Ellipse_48" data-name="Ellipse 48" cx="13" cy="13" r="13" transform="translate(107.298 517)" fill="#3d39b3"/>
    <circle id="Ellipse_46" data-name="Ellipse 46" cx="13" cy="13" r="13" transform="translate(273.298 426)" fill="#3d39b3"/>
    <circle id="Ellipse_47" data-name="Ellipse 47" cx="13" cy="13" r="13" transform="translate(273.298 517)" fill="#3d39b3"/>
    <g id="Mask_Group_17" data-name="Mask Group 17" transform="translate(114.498 524.037)" clip-path="url(#clip-path)">
      <g id="electricity-svgrepo-com" transform="translate(0 0)">
        <path id="Path_400" data-name="Path 400" d="M12.357,13.561a1.2,1.2,0,0,0,1.2-1.2V3.027a1.2,1.2,0,0,0-1.2-1.2H3.027a1.2,1.2,0,0,0-1.2,1.2v9.33a1.2,1.2,0,0,0,1.2,1.2Zm0,.6H3.027a1.806,1.806,0,0,1-1.806-1.806V3.027A1.806,1.806,0,0,1,3.027,1.221h9.33a1.806,1.806,0,0,1,1.806,1.806v9.33A1.806,1.806,0,0,1,12.357,14.163Z" transform="translate(-1.221 -1.221)" fill="#fff"/>
        <path id="Path_401" data-name="Path 401" d="M11.319,3.9l-.005,0ZM6.843,6.826l.786.512a.3.3,0,0,1,.1.4L5.368,11.8,9.453,9.133l-.786-.512a.3.3,0,0,1-.1-.4l2.357-4.06L6.843,6.826Zm-.715.253a.3.3,0,0,1,0-.5L10.972,3.41a.492.492,0,0,1,.709.649L9.235,8.273l.934.607a.3.3,0,0,1,0,.5L5.325,12.549a.492.492,0,0,1-.71-.649L7.061,7.686l-.934-.607Z" transform="translate(-1.677 -1.508)" fill="#fff"/>
      </g>
    </g>
    <g id="Mask_Group_18" data-name="Mask Group 18" transform="translate(280.157 432.579)" clip-path="url(#clip-path-2)">
      <g id="wi-fi-svgrepo-com" transform="translate(0 1.756)">
        <path id="Path_402" data-name="Path 402" d="M6.986,9.717a.182.182,0,0,0-.01.277l.673.673a.2.2,0,0,0,.288,0l.673-.673a.182.182,0,0,0-.01-.277,1.36,1.36,0,0,0-1.614,0Z" transform="translate(-1.301 -1.297)" fill="#fff"/>
        <path id="Path_403" data-name="Path 403" d="M5.117,7.976a.6.6,0,0,1,.038-.919,4.079,4.079,0,0,1,4.731,0,.6.6,0,0,1,.038.919.837.837,0,0,1-1.016.064,2.722,2.722,0,0,0-2.774,0A.837.837,0,0,1,5.117,7.976Z" transform="translate(-1.027 -0.864)" fill="#fff"/>
        <path id="Path_404" data-name="Path 404" d="M2.89,5.622a.63.63,0,0,1,.023-.936,6.8,6.8,0,0,1,8.6,0,.63.63,0,0,1,.023.936.751.751,0,0,1-.99.031,5.438,5.438,0,0,0-6.671,0A.751.751,0,0,1,2.89,5.622Z" transform="translate(-0.721 -0.432)" fill="#fff"/>
        <path id="Path_405" data-name="Path 405" d="M.605,3.267a.644.644,0,0,1,.017-.944,9.515,9.515,0,0,1,12.517.05.644.644,0,0,1,.009.944.726.726,0,0,1-.981.013A8.156,8.156,0,0,0,1.586,3.288.726.726,0,0,1,.605,3.267Z" transform="translate(-0.408)" fill="#fff"/>
      </g>
    </g>
    <g id="Mask_Group_20" data-name="Mask Group 20" transform="translate(114.498 432.579)" clip-path="url(#clip-path-3)">
      <path id="phone-svgrepo-com_1_" data-name="phone-svgrepo-com (1)" d="M11.028,9l-.351-.353h0Zm.3-.3.351.353h0Zm1.6-.21-.238.437Zm1.268.689-.238.437Zm.357,2.16.351.353Zm-.943.937-.351-.353Zm-.879.444.046.5h0ZM6.193,9.905l.351-.353ZM3,3.945l-.5.028h0Zm4.3.963.351.353h0Zm.1-1.761.4-.3ZM6.564,2.029l-.4.3h0ZM4.5,1.841l.351.353h0ZM3.457,2.876l-.351-.353h0ZM8.349,7.762,8.7,7.409Zm3.031,1.589.3-.3-.7-.706-.3.3ZM12.7,8.924l1.268.689.475-.875L13.172,8.05Zm1.512,2.059-.943.937.7.706.943-.937Zm-1.517,1.239c-.962.09-3.452.01-6.147-2.67l-.7.706c2.941,2.925,5.741,3.067,6.941,2.956ZM6.544,9.552C3.975,7,3.549,4.849,3.5,3.917L2.5,3.973c.067,1.173.594,3.554,3.34,6.285Zm.913-4.1.19-.189-.7-.706-.19.189Zm.342-2.6L6.962,1.731l-.8.6L7,3.445ZM4.147,1.488,3.106,2.523l.7.706L4.849,2.194ZM7.106,5.1c-.351-.353-.351-.352-.352-.352h0l0,0,0,0-.009.01-.021.024a.817.817,0,0,0-.05.067,1.013,1.013,0,0,0-.108.211,1.393,1.393,0,0,0-.059.711A4.58,4.58,0,0,0,8,8.115l.7-.706A3.714,3.714,0,0,1,7.484,5.622a.416.416,0,0,1,.006-.207c0-.009.005-.01,0,0l-.011.014-.01.011-.006.007,0,0,0,0h0S7.457,5.451,7.106,5.1ZM8,8.115A4.613,4.613,0,0,0,10.348,9.6a1.408,1.408,0,0,0,.711-.058,1.02,1.02,0,0,0,.211-.107.812.812,0,0,0,.067-.05l.024-.021.01-.009,0,0,0,0h0s0,0-.35-.354-.35-.353-.35-.354h0l0,0,0,0,.007-.006.011-.01.014-.011c.006,0,0,0,0,0a.431.431,0,0,1-.212.007,3.743,3.743,0,0,1-1.8-1.21ZM6.962,1.731a1.875,1.875,0,0,0-2.815-.243l.7.706a.88.88,0,0,1,1.316.134ZM3.5,3.917a.912.912,0,0,1,.311-.687l-.7-.706a1.9,1.9,0,0,0-.6,1.45Zm9.769,8a.953.953,0,0,1-.574.3l.092.991a1.943,1.943,0,0,0,1.184-.587ZM7.647,5.261A1.84,1.84,0,0,0,7.8,2.849l-.8.6a.845.845,0,0,1-.056,1.11Zm6.317,4.352a.87.87,0,0,1,.244,1.37l.7.706a1.864,1.864,0,0,0-.471-2.95ZM11.681,9.05A.856.856,0,0,1,12.7,8.924l.475-.875a1.851,1.851,0,0,0-2.193.295Z" transform="translate(-2.5 -0.629)" fill="#fff"/>
    </g>
    <g id="Mask_Group_19" data-name="Mask Group 19" transform="translate(280.157 524.037)" clip-path="url(#clip-path-4)">
      <g id="tv-svgrepo-com" transform="translate(0 0.863)">
        <path id="Path_406" data-name="Path 406" d="M9.68,15.861h2.588v.863H9.68Zm-1.726.863v.863h6.04v-.863h-.863v-.863l.467,0,.094,0c1.148-.049,1.085-.521-.075-.521l-5.414,0c-1.148.049-1.086.521.074.521h.54v.863Z" transform="translate(-4.503 -6.37)" fill="#fff"/>
        <path id="Path_407" data-name="Path 407" d="M6.2,5.807h8.628l.076,0A1.294,1.294,0,0,1,16.126,7.1v5.177l0,.076a1.294,1.294,0,0,1-1.292,1.218H6.2l-.076,0a1.294,1.294,0,0,1-1.218-1.292V7.1l0-.076A1.294,1.294,0,0,1,6.2,5.807Zm6.471,8.628h2.157l.094,0a2.157,2.157,0,0,0,2.063-2.155V7.1l0-.094a2.157,2.157,0,0,0-2.155-2.063H6.2l-.094,0A2.157,2.157,0,0,0,4.047,7.1v5.177l0,.094A2.157,2.157,0,0,0,6.2,14.435h6.471Z" transform="translate(-4.047 -4.944)" fill="#fff"/>
      </g>
    </g>
    <text id="AIRTIME" transform="translate(30.298 470)" fill="#3d39b3" font-size="9" font-family="SegoeUI, Segoe UI"><tspan x="0" y="0">AIRTIME</tspan></text>
    <text id="ELETRICITY" transform="translate(30.298 562)" fill="#3d39b3" font-size="9" font-family="SegoeUI, Segoe UI"><tspan x="0" y="0">ELETRICITY</tspan></text>
    <text id="TV_CABLE" data-name="TV CABLE" transform="translate(195.298 562)" fill="#3d39b3" font-size="9" font-family="SegoeUI, Segoe UI"><tspan x="0" y="0">TV CABLE</tspan></text>
    <text id="DATA" transform="translate(195.298 470)" fill="#3d39b3" font-size="9" font-family="SegoeUI, Segoe UI"><tspan x="0" y="0">DATA</tspan></text>
    <text id="TRANSACTION_HISTORY" data-name="TRANSACTION HISTORY" transform="translate(20.298 620)" fill="#313131" font-size="13" font-family="SegoeUI-Bold, Segoe UI" font-weight="700"><tspan x="0" y="0">TRANSACTION HISTORY</tspan></text>
    <text id="Total_Fund" data-name="Total Fund" transform="translate(53.298 667)" fill="#00ff2b" font-size="12" font-family="SegoeUI, Segoe UI"><tspan x="0" y="0">Total Fund</tspan></text>
    <text id="Total_Spent" data-name="Total Spent" transform="translate(220.298 666)" fill="#ff0909" font-size="12" font-family="SegoeUI, Segoe UI"><tspan x="0" y="0">Total Spent</tspan></text>
    <g id="icon_navigation_expand_less_24px" data-name="icon/navigation/expand_less_24px" transform="translate(116.298 653)">
      <rect id="Boundary-4" data-name="Boundary" width="21" height="21" fill="none"/>
      <path id="_Color-4" data-name=" ↳Color" d="M5.177,0,0,5.177,1.217,6.393l3.96-3.952,3.96,3.952,1.217-1.217Z" transform="translate(5.177 6.902)" fill="#00ff2b"/>
    </g>
    <g id="icon_navigation_expand_less_24px-2" data-name="icon/navigation/expand_less_24px" transform="translate(116.298 658)">
      <rect id="Boundary-5" data-name="Boundary" width="21" height="21" fill="none"/>
      <path id="_Color-5" data-name=" ↳Color" d="M5.177,0,0,5.177,1.217,6.393l3.96-3.952,3.96,3.952,1.217-1.217Z" transform="translate(5.177 6.902)" fill="#00ff2b"/>
    </g>
    <g id="icon_navigation_expand_more_24px" data-name="icon/navigation/expand_more_24px" transform="translate(288.298 652)">
      <rect id="Boundary-6" data-name="Boundary" width="21" height="21" fill="none"/>
      <path id="_Color-6" data-name=" ↳Color" d="M9.137,0,5.177,3.946,1.217,0,0,1.215l5.177,5.17,5.177-5.17Z" transform="translate(5.177 7.42)" fill="#ff0909"/>
    </g>
    <g id="icon_navigation_expand_more_24px-2" data-name="icon/navigation/expand_more_24px" transform="translate(288.298 658)">
      <rect id="Boundary-7" data-name="Boundary" width="21" height="21" fill="none"/>
      <path id="_Color-7" data-name=" ↳Color" d="M9.137,0,5.177,3.946,1.217,0,0,1.215l5.177,5.17,5.177-5.17Z" transform="translate(5.177 7.42)" fill="#ff0909"/>
    </g>
    <text id="_5" data-name="5" transform="translate(277.298 58)" font-size="9" font-family="SegoeUI, Segoe UI"><tspan x="0" y="0">5</tspan></text>
  </g>
</svg>
