<svg xmlns="http://www.w3.org/2000/svg" xmlns:xlink="http://www.w3.org/1999/xlink" width="121" height="121" viewBox="0 0 121 121">
  <defs>
    <clipPath id="clip-path">
      <rect id="Rectangle_519" data-name="Rectangle 519" width="121" height="121" transform="translate(1331 4005)" fill="#fff" stroke="#707070" stroke-width="1"/>
    </clipPath>
  </defs>
  <g id="Mask_Group_47" data-name="Mask Group 47" transform="translate(-1331 -4005)" clip-path="url(#clip-path)">
    <g id="gotv-nigeria-logo-vector" transform="translate(1356.473 4009.048)">
      <path id="XMLID_5_" d="M95.2,51.451H92.615a1.433,1.433,0,0,0-.887.444L81.946,64.7a.378.378,0,0,1-.645-.02L72.265,51.894a1.215,1.215,0,0,0-.968-.444H53.951a.542.542,0,0,1-.545-.545V46.671a1.085,1.085,0,0,0-1.089-1.089H44.775a1.085,1.085,0,0,0-1.089,1.089V63.128c.121,2.017,1.573,4.276,5.567,4.276h33.5a1.575,1.575,0,0,0,1.19-.5L95.418,51.814c.061,0,.3-.363-.222-.363M71.579,65.125H56.109c-2.158,0-2.662-.605-2.662-2.279V54.254a.549.549,0,0,1,.5-.545h9a1.245,1.245,0,0,1,.807.4L71.821,64.7c.141.242.061.424-.242.424" fill="#008b3b"/>
      <path id="XMLID_2_" d="M27.49,45.218h0l-1.109-.02H24.707v.02C13.715,45.541,10.326,50.7,9.883,55.4H-4.175a.535.535,0,0,0-.5.545V57.32a.549.549,0,0,0,.5.545H.968a.592.592,0,0,1,.565.565h0v3.005h0v1.472c-.182,1.533-1.593,2.077-4.82,2.1-8.31-.2-12.726-3.731-12.726-8.552h0c0-4.962,4.659-8.572,13.432-8.572H5.647a.535.535,0,0,0,.5-.545V46.045a.549.549,0,0,0-.5-.545H-4.719c-16.579,0-20.754,5.97-20.754,10.911h0c0,4.962,4.175,10.911,20.754,10.911H1.513c3.267,0,5.607-.242,7.462-1.311a3.327,3.327,0,0,0,1.8-2.42h0v-.02c0-.081.02-.161.02-.242V62.5c.061-.4.242-.424.282-.424.161-.02.282.02.524.242h0c1.977,2.864,5.93,5.143,13.11,5.365v.02H27.49v-.02c11.839-.343,14.864-6.293,14.864-11.274h0c0-4.9-3.025-10.851-14.864-11.194M26.2,65.488c-3.731.04-6.817-3.973-6.857-8.935-.061-4.962,2.945-9.036,6.676-9.056,3.731-.04,6.8,3.973,6.857,8.935.04,4.962-2.945,9.015-6.676,9.056" fill="#e30613"/>
    </g>
  </g>
</svg>
