<svg xmlns="http://www.w3.org/2000/svg" xmlns:xlink="http://www.w3.org/1999/xlink" width="121" height="121" viewBox="0 0 121 121">
  <defs>
    <clipPath id="clip-path">
      <rect id="Rectangle_511" data-name="Rectangle 511" width="121" height="121" transform="translate(304 4005)" fill="#fff" stroke="#707070" stroke-width="1"/>
    </clipPath>
  </defs>
  <g id="Mask_Group_44" data-name="Mask Group 44" transform="translate(-304 -4005)" clip-path="url(#clip-path)">
    <g id="airtel-nigeria" transform="translate(302.476 4003.479)">
      <path id="Path_620" data-name="Path 620" d="M76.649,1.521a26.132,26.132,0,0,1,11.682,2.7,17.819,17.819,0,0,1,7.65,7.141,19.351,19.351,0,0,1,2.256,6.78,27.759,27.759,0,0,1-1.515,13.314A44.374,44.374,0,0,1,93.284,38.7a50.624,50.624,0,0,1-10.22,12.529A95.259,95.259,0,0,1,66.109,63.476a30.988,30.988,0,0,1-7.429,3.132,18.111,18.111,0,0,1-4.941.625,6.649,6.649,0,0,1-5.25-2.729A7.964,7.964,0,0,1,46.7,59.131a6.918,6.918,0,0,1,.233-1.605,28.545,28.545,0,0,1,3.491-8,15.261,15.261,0,0,1,4.629-4.755,9.144,9.144,0,0,1,6.981-1.352,5.892,5.892,0,0,1,2.175,1.011,2.993,2.993,0,0,1,.774,4.226,23.46,23.46,0,0,1-2.278,2.916c-1.414,1.523-2.916,2.964-4.383,4.437a25.18,25.18,0,0,0-3.506,4.231,6.706,6.706,0,0,0-1.126,2.605,1.734,1.734,0,0,0,1.683,2.162,5.258,5.258,0,0,0,1.889-.19,27.028,27.028,0,0,0,5.366-2.273,55.325,55.325,0,0,0,7.5-4.936,85.514,85.514,0,0,0,8.311-7.036,42.561,42.561,0,0,0,7.61-9.686A25.836,25.836,0,0,0,89.1,32.426a12.256,12.256,0,0,0-1.038-7.66,6.978,6.978,0,0,0-2.662-2.9,5,5,0,0,0-1.723-.643,12.986,12.986,0,0,0-6.469.633,32.6,32.6,0,0,0-6.216,2.977c-4.3,2.55-8.6,5.1-12.7,7.971-2.054,1.439-4.045,2.97-6.058,4.466A51.483,51.483,0,0,1,46.616,41.1a17.935,17.935,0,0,1-5.174,1.964,8.142,8.142,0,0,1-6.23-1.191,8.432,8.432,0,0,1-3.87-9.65,18.675,18.675,0,0,1,2.567-5.83A45.665,45.665,0,0,1,44.521,14.878,74.337,74.337,0,0,1,64.865,3.692,35.726,35.726,0,0,1,76.649,1.521Z" fill="#e20010"/>
      <path id="Path_621" data-name="Path 621" d="M25.785,103.791a6.144,6.144,0,0,0-.992-3.762,3.25,3.25,0,0,0-1.568-1.136,7.528,7.528,0,0,0-4.856-.015c-1.284.4-2.522.938-3.778,1.42-.248.092-.474.21-.774.344-.592-1.467-1.173-2.892-1.783-4.38.882-.418,1.713-.845,2.57-1.211A18.5,18.5,0,0,1,20.779,93.5a11.415,11.415,0,0,1,6.238,1.028A8.412,8.412,0,0,1,31.5,99.858a4.246,4.246,0,0,1,.172.992c.086,3.2.2,6.4.215,9.605.009,2.188-.135,4.378-.2,6.567a1.186,1.186,0,0,1-.35.8,13.713,13.713,0,0,1-5.53,3.636,17.491,17.491,0,0,1-7.122,1.023,9.082,9.082,0,0,1-5.791-2.555,9.348,9.348,0,0,1-3.086-5.595,8.909,8.909,0,0,1,2.663-7.939,8.644,8.644,0,0,1,5.147-2.4,49.573,49.573,0,0,1,6.565-.2Zm-.287,5a3.348,3.348,0,0,0-.39-.053c-.744-.015-1.5-.041-2.245-.03-.9.014-1.8.017-2.689.1a4.431,4.431,0,0,0-2.531.973,3.829,3.829,0,0,0-1.249,3.862,4.465,4.465,0,0,0,3.253,3.714,5.989,5.989,0,0,0,2.944.124,5.165,5.165,0,0,0,2.451-1.176,1.046,1.046,0,0,0,.4-.767c.029-.654.113-1.306.118-1.96.01-1.5-.012-2.995-.025-4.492a2.557,2.557,0,0,0-.04-.3Z" fill="#e20010"/>
      <path id="Path_622" data-name="Path 622" d="M100.4,108.666c-5.322,0-10.544-.114-15.84.025.027.372.043.724.077,1.068a12.474,12.474,0,0,0,1.033,4.06,6.9,6.9,0,0,0,2.086,2.674,6.245,6.245,0,0,0,4.8,1.049,17.012,17.012,0,0,0,4.072-1.229c.607-.239,1.208-.5,1.861-.763.62,1.3,1.228,2.573,1.861,3.885a4.053,4.053,0,0,1-.347.248,19.553,19.553,0,0,1-8.345,2.777,11.929,11.929,0,0,1-7.691-1.721,11.482,11.482,0,0,1-3.669-4.106,15.954,15.954,0,0,1-2.054-6.594,19,19,0,0,1,2.7-11.824,9.119,9.119,0,0,1,6.665-4.39A11.68,11.68,0,0,1,95.269,95.1a7.978,7.978,0,0,1,2.968,3.074A13.741,13.741,0,0,1,100,103.524c.2,1.518.268,3.055.39,4.59.015.158,0,.321,0,.552Zm-6.45-4.819A9.591,9.591,0,0,0,92.5,99.785a3.349,3.349,0,0,0-1.852-1.2,4.01,4.01,0,0,0-4.757,2.233,17.906,17.906,0,0,0-.695,2.068c-.1.314-.161.64-.239.956.525.139,8.453.145,8.992,0Z" fill="#e20010"/>
      <path id="Path_623" data-name="Path 623" d="M65.485,87.046l6.35-.982v7.8c1.409.084,2.751-.007,4.1.138v4.8c-1.365.022-2.7-.019-4.094.066v.675q-.017,6.937-.03,13.875c0,.728.058,1.458.124,2.183a2.217,2.217,0,0,0,1.8,2.1c.6.151,1.209.237,1.815.352l.608.124v4.077a.83.83,0,0,1-.216.072,15.751,15.751,0,0,1-5.34-.5,7,7,0,0,1-4.084-2.977A6.788,6.788,0,0,1,65.579,116a16.26,16.26,0,0,1-.107-1.9q0-13.174.015-26.345Z" fill="#e20010"/>
      <path id="Path_624" data-name="Path 624" d="M103.886,87.05l6.14-1.064v.847q0,11.964.01,23.929c0,1.46.012,2.92.024,4.381a2.366,2.366,0,0,0,1.913,2.605,12.447,12.447,0,0,0,1.423.305c.293.055.589.081.945.124v4.166a.27.27,0,0,1-.114.056,15.926,15.926,0,0,1-5.177-.454,7.9,7.9,0,0,1-2.812-1.474,6.639,6.639,0,0,1-2.331-4.859c-.047-.558-.041-1.123-.04-1.683q0-13.088.019-26.174Z" fill="#e20010"/>
      <path id="Path_625" data-name="Path 625" d="M53.14,121.975h-6.2c-.007-.259-.02-.5-.021-.731q-.01-5.59-.016-11.179c-.007-2.977-.026-5.954-.025-8.931A11.066,11.066,0,0,1,47,99.521a2.7,2.7,0,0,1,.853-1.544,16.4,16.4,0,0,1,8.683-4.406,17.626,17.626,0,0,1,6.31-.009c.11.02.221.045.329.072.053.014.1.04.207.079-.7,1.791-1.563,3.5-2.372,5.2-.966,0-1.882-.029-2.795.006a11.175,11.175,0,0,0-4.541,1.131.867.867,0,0,0-.551.906q.026,10.172.012,20.344Z" fill="#e20010"/>
      <path id="Path_626" data-name="Path 626" d="M42.362,94.125c.066,9.294-.006,18.533.053,27.829h-6.07c-.015-.225-.045-.459-.045-.693V103.73c0-2.678.022-5.356.033-8.035v-.662Z" fill="#e20010"/>
      <path id="Path_627" data-name="Path 627" d="M39.075,91.39a3.983,3.983,0,0,1-3.59-5.742A3.786,3.786,0,0,1,39.41,83.3a4.047,4.047,0,0,1-.335,8.088Z" fill="#e20010"/>
    </g>
  </g>
</svg>
