<svg xmlns="http://www.w3.org/2000/svg" xmlns:xlink="http://www.w3.org/1999/xlink" width="121" height="121" viewBox="0 0 121 121">
  <defs>
    <clipPath id="clip-path">
      <rect id="Rectangle_515" data-name="Rectangle 515" width="121" height="121" transform="translate(498 4005)" fill="#fff" stroke="#707070" stroke-width="1"/>
    </clipPath>
  </defs>
  <g id="Mask_Group_46" data-name="Mask Group 46" transform="translate(-498 -4005)" clip-path="url(#clip-path)">
    <g id="_9mobile" data-name="9mobile" transform="translate(496.547 4003.088)">
      <path id="Path_636" data-name="Path 636" d="M40.477,110.8a5.044,5.044,0,0,1,3.484,1.01,4.071,4.071,0,0,1,1.1,3.141v7.615H42.678v-7.293q0-2.409-2.7-2.409a4.1,4.1,0,0,0-2.2.62,5.922,5.922,0,0,1,.16,1.467v7.615H35.552v-7.293q0-2.409-2.7-2.409a6.89,6.89,0,0,0-2.406.436v9.265H28.062V111.99a10.5,10.5,0,0,1,2.486-.867,12.727,12.727,0,0,1,2.8-.332,5.255,5.255,0,0,1,3.314.867,8.817,8.817,0,0,1,3.812-.861ZM53.23,122.912a5.168,5.168,0,0,1-4.1-1.56,6.683,6.683,0,0,1-1.373-4.541q0-6.033,5.452-6.032a5.258,5.258,0,0,1,4.131,1.548,7.9,7.9,0,0,1-.045,9A5.2,5.2,0,0,1,53.23,122.912Zm-.024-2.042q3.134,0,3.132-4.059A5.032,5.032,0,0,0,55.6,113.8a2.781,2.781,0,0,0-2.384-1,2.69,2.69,0,0,0-2.372,1.021,6.58,6.58,0,0,0,.022,6.009,2.656,2.656,0,0,0,2.344,1.038ZM66.686,110.8a4.8,4.8,0,0,1,3.858,1.536,6.509,6.509,0,0,1,1.32,4.353q0,3.395-1.577,4.8a5.814,5.814,0,0,1-4.009,1.416q-4.881,0-4.881-2.614V106.439h2.362v5.074A7.083,7.083,0,0,1,65.245,111a6.411,6.411,0,0,1,1.441-.2Zm-.591,10.023a2.936,2.936,0,0,0,2.6-1.078,5.145,5.145,0,0,0,.743-2.959,4.717,4.717,0,0,0-.783-2.935,2.759,2.759,0,0,0-2.326-1.009,5.536,5.536,0,0,0-1.328.171,4.665,4.665,0,0,0-1.239.5v6.2q-.006,1.115,2.331,1.114Zm8.463-13.784H77.1v2.179H74.557Zm.068,4.083h2.384l.022,11.445H74.626Zm5.761,11.445V106.692h2.362v15.871Zm10.347-11.8a4.453,4.453,0,0,1,3.893,1.735,8.144,8.144,0,0,1,1.214,4.851H87.847a3.912,3.912,0,0,0,.991,2.581,3.341,3.341,0,0,0,2.485.882,7.629,7.629,0,0,0,3.677-.94v2.248a9.9,9.9,0,0,1-4.057.787,5.239,5.239,0,0,1-4.029-1.571,6.294,6.294,0,0,1-1.463-4.461,6.641,6.641,0,0,1,1.384-4.529,4.957,4.957,0,0,1,3.9-1.582Zm-.068,1.982a2.632,2.632,0,0,0-1.883.643,3.6,3.6,0,0,0-.886,2.178h5.516a3.561,3.561,0,0,0-.818-2.144,2.582,2.582,0,0,0-1.929-.678ZM67.9,18.395a27.472,27.472,0,0,0-6.071-.976A19.08,19.08,0,1,0,80.434,31.94l15.231-4.1a34.581,34.581,0,0,1-4.541,27.784L65.9,102.381H42.537l16.6-30.6c.09-.169-.176-.54-.4-.56a34.73,34.73,0,1,1,13.6-67.735Z" fill="#006e53" fill-rule="evenodd"/>
      <circle id="Ellipse_72" data-name="Ellipse 72" cx="10.501" cy="10.501" r="10.501" transform="translate(51.212 26.01)" fill="#d6e806"/>
      <path id="Path_637" data-name="Path 637" d="M79.851,29.351a19.038,19.038,0,0,0-9.788-10.263m16.472,7.4a27.072,27.072,0,0,0-13.6-14.319M92.978,24.34a33.854,33.854,0,0,0-17.9-18.615" fill="none" stroke="#d6e806" stroke-linecap="round" stroke-width="2.387"/>
    </g>
  </g>
</svg>
