<svg xmlns="http://www.w3.org/2000/svg" width="1224.513" height="1153.246" viewBox="0 0 1224.513 1153.246">
  <g id="Polygon_1" data-name="Polygon 1" transform="matrix(0.951, 0.309, -0.309, 0.951, 274.407, 0)" fill="none" stroke-linecap="round">
    <path d="M731.7,0a30,30,0,0,1,26.147,15.292l232.875,414a30,30,0,0,1,0,29.416l-232.875,414A30,30,0,0,1,731.7,888H267.3a30,30,0,0,1-26.147-15.292l-232.875-414a30,30,0,0,1,0-29.416l232.875-414A30,30,0,0,1,267.3,0Z" stroke="none"/>
    <path d="M 267.2954711914062 9.99993896484375 C 260.08056640625 9.99993896484375 253.4012451171875 13.90631103515625 249.864013671875 20.19488525390625 L 16.98895263671875 434.1947326660156 C 13.58685302734375 440.2427368164062 13.58685302734375 447.7571411132812 16.98883056640625 453.8051452636719 L 249.8638916015625 867.8051147460938 C 253.401123046875 874.0933837890625 260.0804443359375 877.9998168945312 267.2953491210938 877.9998168945312 L 731.7047119140625 877.9998168945312 C 738.9194946289062 877.9998168945312 745.5989990234375 874.0933837890625 749.1361694335938 867.8049926757812 L 982.0111083984375 453.8051452636719 C 985.4132080078125 447.7570190429688 985.4132080078125 440.2428588867188 982.0111083984375 434.1947326660156 L 749.1361694335938 20.19488525390625 C 745.5989990234375 13.90631103515625 738.9194946289062 9.99993896484375 731.7047119140625 9.99993896484375 L 267.2954711914062 9.99993896484375 M 267.2954711914062 -6.103515625e-05 L 731.7047119140625 -6.103515625e-05 C 742.54296875 -6.103515625e-05 752.538330078125 5.8458251953125 757.8519287109375 15.29217529296875 L 990.726806640625 429.2920837402344 C 995.8638916015625 438.4244689941406 995.8638916015625 449.5754089355469 990.726806640625 458.7077941894531 L 757.8519287109375 872.7076416015625 C 752.538330078125 882.1539306640625 742.54296875 887.9998168945312 731.7047119140625 887.9998168945312 L 267.2953491210938 887.9998168945312 C 256.4572143554688 887.9998168945312 246.4616088867188 882.1539306640625 241.148193359375 872.7076416015625 L 8.2730712890625 458.7077941894531 C 3.13616943359375 449.5754089355469 3.13616943359375 438.4244689941406 8.27325439453125 429.2920837402344 L 241.1483154296875 15.29217529296875 C 246.4617919921875 5.8458251953125 256.4573364257812 -6.103515625e-05 267.2954711914062 -6.103515625e-05 Z" stroke="none" fill="#fff12c"/>
  </g>
</svg>
